<?xml version="1.0" encoding="iso-8859-1"?>
<!-- Generator: Adobe Illustrator 18.0.0, SVG Export Plug-In . SVG Version: 6.00 Build 0)  -->
<!DOCTYPE svg PUBLIC "-//W3C//DTD SVG 1.1//EN" "http://www.w3.org/Graphics/SVG/1.1/DTD/svg11.dtd">
<svg version="1.1" id="Capa_1" xmlns="http://www.w3.org/2000/svg" xmlns:xlink="http://www.w3.org/1999/xlink" x="0px" y="0px"
	 viewBox="0 0 462.146 462.146" style="enable-background:new 0 0 462.146 462.146;" xml:space="preserve">
<path d="M458.426,217.769l-8.371-36.677c-7.463-32.698-22.461-63.841-43.372-90.063s-47.937-47.773-78.153-62.326
	C298.312,14.152,264.612,6.46,231.073,6.46s-67.239,7.692-97.456,22.244C103.4,43.256,76.374,64.807,55.463,91.029
	s-35.909,57.365-43.372,90.063L3.72,217.769c-9.977,43.71,0.334,88.883,28.288,123.936l53.776,67.434
	c23.591,29.582,58.822,46.548,96.658,46.548h97.262c37.837,0,73.067-16.966,96.657-46.548l53.777-67.434
	C458.093,306.651,468.403,261.478,458.426,217.769z M182.442,437.686c-18.664,0-36.581-4.841-52.276-13.789v-36.922
	c7.818,6.051,17.613,9.665,28.242,9.665c15.416,0,29.759-7.636,38.368-20.427c0.8-1.188,1.509-2.682,2.373-4.995
	c0.006-0.017,0.014-0.033,0.021-0.05c8.89,6.887,20.139,10.805,31.906,10.805c11.684,0,22.878-3.876,31.748-10.69
	c0.599,1.585,1.125,2.709,1.706,3.635c8.509,13.601,23.166,21.721,39.208,21.721c10.627,0,20.421-3.613,28.238-9.662V423.9
	c-15.693,8.947-33.609,13.787-52.271,13.787H182.442z M160.387,264.156c1.357-2.298,3.528-3.929,6.112-4.594
	c2.584-0.664,5.272-0.284,7.57,1.073c2.297,1.357,3.929,3.528,4.594,6.112c0.101,0.393,0.153,0.691,0.18,0.905
	c-1.674,1.088-6.49,2.327-9.467,3.093c-2.976,0.766-7.788,2-9.783,1.86c-0.081-0.201-0.179-0.487-0.28-0.88
	C158.649,269.142,159.03,266.454,160.387,264.156z M193.032,287.537h29.042v3.593c-4.22,0.297-8.226,0.944-11.823,2.379
	c-8.324,3.321-12.908,10.371-12.908,19.85c0,9.14,4.081,17.389,10.6,23.217c-11.584,5.716-20.952,15.734-25.657,28.35
	c-0.312,0.834-0.503,1.27-0.589,1.454c-5.275,7.682-13.96,12.26-23.287,12.26c-15.571,0-28.239-12.668-28.239-28.24
	C130.169,315.738,158.369,287.537,193.032,287.537z M283.303,267.654c0.026-0.214,0.079-0.513,0.18-0.906
	c0.665-2.584,2.297-4.755,4.594-6.112c2.298-1.357,4.986-1.738,7.571-1.073c2.584,0.665,4.755,2.296,6.111,4.593
	c1.357,2.297,1.738,4.986,1.073,7.569c0,0,0,0.001,0,0.001c-0.102,0.393-0.199,0.68-0.28,0.88c-1.977,0.143-6.806-1.094-9.783-1.861
	C289.792,269.98,284.978,268.741,283.303,267.654z M331.977,350.401c0,15.571-12.668,28.239-28.239,28.239
	c-9.708,0-18.587-4.869-23.806-13.042c-0.051-0.118-0.141-0.333-0.273-0.685c-4.715-12.504-14.056-22.454-25.615-28.191
	c6.614-5.835,10.761-14.147,10.761-23.362c0-9.479-4.584-16.528-12.908-19.85c-3.597-1.435-7.603-2.082-11.822-2.379v-3.593h29.041
	C303.777,287.537,331.977,315.738,331.977,350.401z M231.073,308.881c5.214,0,11.037,0.104,14.151,1.347
	c1.149,0.458,1.579,0.63,1.579,3.132c0,7.688-7.057,13.943-15.73,13.943c-8.674,0-15.731-6.255-15.731-13.943
	c0-2.502,0.43-2.673,1.579-3.132C220.036,308.985,225.86,308.881,231.073,308.881z M231.05,349.302
	c7.833,0,15.263,2.75,21.167,7.455c-5.801,4.598-13.283,7.217-21.141,7.217c-7.949,0-15.501-2.668-21.324-7.352
	c5.787-4.619,13.033-7.319,20.667-7.319H231.05z M362.289,397.916c-3.773,4.731-7.894,9.084-12.313,13.035
	c0,0,0.001-60.538,0.001-60.551c0-27.083-13.396-51.08-33.896-65.762c1.741-2.041,3.241-4.762,4.183-8.426
	c1.863-7.24,0.796-14.773-3.007-21.21c-3.802-6.438-9.884-11.008-17.124-12.871c-7.243-1.866-14.774-0.796-21.211,3.007
	c-6.438,3.803-11.009,9.884-12.871,17.125c-0.7,2.72-0.88,5.134-0.709,7.275h-68.538c0.172-2.141-0.009-4.555-0.709-7.275
	c-1.863-7.241-6.434-13.322-12.872-17.125c-6.436-3.802-13.97-4.87-21.21-3.007c-7.24,1.863-13.322,6.434-17.125,12.872
	c-3.802,6.437-4.871,13.97-3.008,21.21c0,0,0,0,0,0c0.943,3.664,2.442,6.385,4.184,8.425c-20.5,14.683-33.897,38.68-33.897,65.763
	l-0.003-0.004v60.55c-4.417-3.95-8.537-8.302-12.309-13.031l-53.776-67.434c-3.137-3.934-6.017-8.015-8.643-12.218
	c1.117,0.196,2.243,0.361,3.385,0.467c1.299,0.121,2.594,0.18,3.884,0.18c12.544,0,24.444-5.64,32.409-15.528l30.943-38.414
	c3.118-3.871,2.508-9.537-1.363-12.655c-3.871-3.118-9.537-2.508-12.655,1.363l-30.943,38.415
	c-5.062,6.285-12.578,9.458-20.611,8.716c-8.036-0.746-14.835-5.251-18.655-12.361c-0.046-0.085-0.1-0.162-0.148-0.245
	c-6.557-21.234-7.523-44.048-2.415-66.428l8.371-36.677c6.865-30.077,20.661-58.725,39.896-82.845
	c19.235-24.121,44.095-43.945,71.891-57.331c27.796-13.386,58.795-20.461,89.646-20.461c30.851,0,61.85,7.075,89.646,20.461
	c27.796,13.386,52.655,33.21,71.891,57.331c19.236,24.121,33.032,52.768,39.896,82.845l8.371,36.678
	c5.108,22.379,4.143,45.193-2.414,66.426c-0.048,0.083-0.103,0.16-0.148,0.246c-3.819,7.11-10.618,11.615-18.654,12.361
	c-8.05,0.741-15.549-2.432-20.612-8.716l-30.942-38.414c-3.117-3.871-8.783-4.481-12.654-1.363s-4.481,8.784-1.363,12.654
	l30.942,38.415c7.966,9.889,19.864,15.528,32.409,15.528c1.289,0,2.586-0.06,3.885-0.18c1.137-0.106,2.263-0.259,3.376-0.454
	c-2.623,4.199-5.5,8.275-8.634,12.205L362.289,397.916z"/>
<g>
</g>
<g>
</g>
<g>
</g>
<g>
</g>
<g>
</g>
<g>
</g>
<g>
</g>
<g>
</g>
<g>
</g>
<g>
</g>
<g>
</g>
<g>
</g>
<g>
</g>
<g>
</g>
<g>
</g>
</svg>
